<svg width="256" height="256" viewBox="0 0 256 256" fill="none" xmlns="http://www.w3.org/2000/svg">
<path d="M128 256C198.692 256 256 198.692 256 128C256 57.3076 198.692 0 128 0C57.3075 0 -6.10352e-05 57.3076 -6.10352e-05 128C-6.10352e-05 198.692 57.3075 256 128 256Z" fill="white" fill-opacity="0.1"/>
<path d="M120.591 179.496C95.4396 175.813 76.1372 154.13 76.1372 127.93C76.1372 101.731 95.4396 80.0481 120.591 76.3663V49.2314C80.5475 53.0616 49.2309 86.8337 49.2309 127.93C49.2309 169.027 80.5475 202.797 120.591 206.629V179.496Z" fill="white"/>
<path d="M172.789 76.7998L172.091 79.1748V148.091L172.789 148.789L204.78 129.879L172.789 76.7998Z" fill="white"/>
<path d="M172.79 76.7998L140.8 129.879L172.79 148.789V115.339V76.7998Z" fill="white"/>
<path d="M172.791 159.195L172.397 159.675V184.224L172.791 185.374L204.8 140.295L172.791 159.195Z" fill="white"/>
<path d="M172.79 185.375V159.195L140.8 140.295L172.79 185.375Z" fill="white"/>
<path d="M172.79 148.788L204.78 129.879L172.79 115.339V148.788Z" fill="white"/>
<path d="M140.8 129.879L172.789 148.789V115.339L140.8 129.879Z" fill="white"/>
</svg>
